<svg id="Capa_1" enable-background="new 0 0 510 510" height="512" viewBox="0 0 510 510" width="512" xmlns="http://www.w3.org/2000/svg"><g id="XMLID_203_"><path id="XMLID_233_" d="m211.083 446.655c31.299 38.829 79.248 62.694 130.901 62.694l10-80.781-10-80.781z" fill="#cd0000"/><path id="XMLID_228_" d="m313 171.25-14.026-37.503c24.638-26.277 37.443-37.68 43.01-43.096l10 56.391-10 56.39z" fill="#cd0000"/><path id="XMLID_220_" d="m341.984 509.349h.001c92.641 0 168.015-75.369 168.015-168.015 0-78.297-111.453-196.801-168.016-250.684z" fill="#a80000"/><path id="XMLID_219_" d="m180 .651c-60.206 57.083-180 185.217-180 268.698 0 99.25 80.745 180 180 180l10-224.349z" fill="#ff8066"/><path id="XMLID_215_" d="m180 449.349c99.249 0 180-80.745 180-180 0-83.692-119.456-211.019-180-268.698z" fill="#ff4d4d"/><path id="XMLID_214_" d="m75 269.349c0 57.895 47.101 105 105 105l10-105-10-105c-57.895 0-105 47.101-105 105z" fill="#fff5f5"/><path id="XMLID_211_" d="m180 164.349v210c57.895 0 105-47.101 105-105 0-57.896-47.102-105-105-105z" fill="#ece6f2"/><path id="XMLID_208_" d="m165 254.349c-10.492 0-19.508 0-30 0v30h30v30h15l10-45-10-45c-5.246 0-9.754 0-15 0z" fill="#ff4d4d"/><path id="XMLID_204_" d="m195 314.349c0-10.492 0-19.508 0-30h30c0-10.492 0-19.508 0-30-10.492 0-19.508 0-30 0 0-10.492 0-19.508 0-30-5.246 0-9.754 0-15 0v90z" fill="#cd0000"/></g></svg>